/* XPM */
static char *result[] = {
/* columns rows colors chars-per-pixel */
"20 20 38 1 ",
"  c #95A5A5",
". c #96A5A5",
"X c #95A4A6",
"o c #95A5A6",
"O c #94A5A7",
"+ c #95A5A7",
"@ c #96A5A6",
"# c #96A5A7",
"$ c #96A6A6",
"% c #97A6A7",
"& c #97A7A8",
"* c #9AA9AA",
"= c #9AAAAB",
"- c #A1AFB0",
"; c #A2B0B1",
": c #A4B1B2",
"> c #A8B5B6",
", c #ABB8B9",
"< c #ADB9BA",
"1 c #AEBABB",
"2 c #B5C1C1",
"3 c #BAC5C5",
"4 c #BBC5C6",
"5 c #C1CACB",
"6 c #C1CBCB",
"7 c #C4CDCD",
"8 c #C5CECE",
"9 c #CBD3D3",
"0 c #CCD4D4",
"q c #CDD5D5",
"w c #CFD6D7",
"e c #D3DADA",
"r c #D8DEDE",
"t c #E0E5E5",
"y c #E1E5E6",
"u c #EBEDED",
"i c #F2F4F4",
"p c None",
/* pixels */
"ppppppppppppppp#pppp",
"pppppppppooXppoopppp",
"pppppppppooooooopppp",
"pppppppppooooooo ppp",
"pppppppppo%*oo=ooppp",
"pppppppp#o,3o;7ooppp",
"ppppppppoooooooooppp",
"ppppppppoooooooooppp",
"ppppppppooooooooo@pp",
"pppppppOoooooooooopp",
"pppppppooooooooooopp",
"pppppppooooooooooopp",
"pppppppooooooooooo+p",
"pppppppoooooooooooop",
"pppppp@oooooooooooop",
"ppppppoooo>ro48oooop",
"ppppppoooo1to60oooop",
"pooo%u&ooo<yo5qoooop",
"poooow-ooo;9o2i:ooop",
"p.+oooooooooooe5$Xpp"
};
