/* XPM */
static char *result[] = {
/* columns rows colors chars-per-pixel */
"20 20 114 2 ",
"   c #222424",
".  c #252829",
"X  c #262828",
"o  c #25292A",
"O  c #292B2B",
"+  c #292E2E",
"@  c #343737",
"#  c #343838",
"$  c #343939",
"%  c #383C3D",
"&  c #383C3E",
"*  c #421611",
"=  c #4E1914",
"-  c #3B4141",
";  c #3D4343",
":  c #3E4242",
">  c #3D4445",
",  c #3E4444",
"<  c #3F4545",
"1  c #404646",
"2  c #414646",
"3  c #414747",
"4  c #424747",
"5  c #424848",
"6  c #434949",
"7  c #444A4A",
"8  c #474B4B",
"9  c #464C4C",
"0  c #474C4C",
"q  c #464D4E",
"w  c #484E4E",
"e  c #484F4F",
"r  c #4A4F4F",
"t  c #4B5151",
"y  c #4C5353",
"u  c #4E5454",
"i  c #515858",
"p  c #515859",
"a  c #535858",
"s  c #545B5B",
"d  c #555B5B",
"f  c #555D5D",
"g  c #575D5D",
"h  c #565F5F",
"j  c #595F5F",
"k  c #575F60",
"l  c #5A6161",
"z  c #596262",
"x  c #5A6364",
"c  c #5A6465",
"v  c #5D6565",
"b  c #5F6565",
"n  c #606767",
"m  c #606869",
"M  c #606969",
"N  c #60696A",
"B  c #606A6B",
"V  c #616B6B",
"C  c #646D6E",
"Z  c #646F6F",
"A  c #667070",
"S  c #677273",
"D  c #687273",
"F  c #6B7373",
"G  c #687374",
"H  c #6D7879",
"J  c #6D7979",
"K  c #727A7A",
"L  c #778080",
"P  c #788080",
"I  c #798181",
"U  c #788485",
"Y  c #7A8484",
"T  c #798586",
"R  c #7C8585",
"E  c #7D8686",
"W  c #7A8788",
"Q  c #7C898A",
"!  c #7D898A",
"~  c #7E8B8C",
"^  c #808D8E",
"/  c #829091",
"(  c #899798",
")  c #8D9898",
"_  c #8E9999",
"`  c #8F9E9F",
"'  c #939F9F",
"]  c #91A0A1",
"[  c #92A2A3",
"{  c #93A2A3",
"}  c #97A1A1",
"|  c #94A4A5",
" . c #95A5A6",
".. c #98A3A3",
"X. c #99A4A4",
"o. c #9EA9A9",
"O. c #9FAAAA",
"+. c #A6B2B2",
"@. c #A7B3B3",
"#. c #A9B5B5",
"$. c #AEBABA",
"%. c #B1BDBD",
"&. c #B7C4C4",
"*. c #BAC7C7",
"=. c #BDCACA",
"-. c #BFCDCD",
";. c #C0CECE",
":. c #C7D5D5",
">. c #C8D6D6",
",. c #CDDBDB",
"<. c #CFDEDE",
"1. c #D3E2E2",
"2. c #D6E5E5",
"3. c None",
/* pixels */
"3.3.3.3.3.3.3.3.3.3.3.3.3.3.3.3.3.3.3.3.",
"3.3.3.3.3.3.3.3.3.3.3.3.3.3.3.3.3.3.3.3.",
"3.3.3.3.3.3.3.3.3.3.3.3.3.3.$ 3.O 3.3.3.",
"3.3.3.3.3.3.3.3.3.3.3.3.3.- W o B 3.3.3.",
"3.3.3.6 R o.g 3.3.3.3.3.3.V  .H Q q 3.3.",
"3.3.4 ,.E *.Y 8 4 r 3 c !  . .S ( k 3.3.",
"3.3.: <.F I #.2.2.2._ J  . . . . . .z & ",
"3.3.j >.-.} =.2.2.2.2.X.i [  . .G x 8 3.",
"3.f T V S ~ A ' 2.2.2.2.$.Z  .^ 3.= * 3.",
"3.D  . . . . .C :.2.2.2.2.v | h 3.3.3.3.",
"3.m  . .| U  .` P 2.1.2.2.;.l ; 3.3.3.3.",
"3.d  . .U L 0 s % a 2 2.2.,.1 3.3.3.3.3.",
"3.< |  .N +.3.3.3.3.r 2.2.u 3.3.3.3.3.3.",
"3., { / K @ 3.3.3.3.# 1.%.5 3.3.3.3.3.3.",
"3.e ] . ..3.3.3.3.3.3.@.) y 3.3.3.3.3.3.",
"3.t M X O.3.3.3.3.3.3.b &.> 3.3.3.3.3.3.",
"3.p M 3.v   3.3.3.3.3.3.+.n 7 3.3.3.3.3.",
"3.3.w 3.3.3.3.3.3.3.3.3.: 9 + 3.3.3.3.3.",
"3.3.3.3.3.3.3.3.3.3.3.3.3.3.3.3.3.3.3.3.",
"3.3.3.3.3.3.3.3.3.3.3.3.3.3.3.3.3.3.3.3."
};
