/* XPM */
static char *result[] = {
/* columns rows colors chars-per-pixel */
"20 20 8 1 ",
"  c #E7EDE7",
". c #E6EDE8",
"X c #E7EDE8",
"o c #E7ECE9",
"O c #E6EEE8",
"+ c #E7EEE8",
"@ c #E8EDE8",
"# c None",
/* pixels */
"####################",
"####################",
"####################",
"####################",
"##@@@@O#@@@@@@@@@@##",
"##X.@+X#@@@@@@@@.X##",
"##X###X##########X##",
"##X###X##########X##",
"##X###X##########X##",
"##X###X##########X##",
"##X###X##########X##",
"##X###X##########X##",
"##X###X#########oX##",
"##X# #X#..XX......##",
"##X###X####X########",
"##XXXXX#XXXXXX######",
"####################",
"####################",
"####################",
"####################"
};
